<svg xmlns="http://www.w3.org/2000/svg" viewBox="0 0 200 48">
  <defs>
    <style>
      .a {
        fill: #212121;
      }

      .b {
        fill: #e52637;
      }

      .c {
        fill: #f3a9b0;
      }
    </style>
  </defs>
  <title>logo_slmG</title>
  <g>
    <path class="a" d="M30.69,34.4a12,12,0,0,1-4.59,10Q21.51,48,13.33,48A30.19,30.19,0,0,1,0,45.19V36a55.21,55.21,0,0,0,8.07,3,24.05,24.05,0,0,0,6,.86,8.64,8.64,0,0,0,5-1.25,4.25,4.25,0,0,0,1.76-3.7,4.07,4.07,0,0,0-.77-2.44,8.63,8.63,0,0,0-2.27-2.06,58.59,58.59,0,0,0-6.1-3.16,29,29,0,0,1-6.47-3.86A14.51,14.51,0,0,1,1.84,19,12.21,12.21,0,0,1,.55,13.29,12,12,0,0,1,4.78,3.54Q9,0,16.49,0a27.86,27.86,0,0,1,7,.86,48.45,48.45,0,0,1,7,2.43L27.24,11A47.41,47.41,0,0,0,21,8.85a20.22,20.22,0,0,0-4.85-.61,6.45,6.45,0,0,0-4.35,1.31A4.3,4.3,0,0,0,10.3,13a4.2,4.2,0,0,0,.61,2.28,6.69,6.69,0,0,0,1.95,1.88,60.35,60.35,0,0,0,6.33,3.27q6.6,3.13,9,6.28A12.18,12.18,0,0,1,30.69,34.4Z"/>
    <path class="a" d="M39.22,47.36V.67h10V39.19H68.3v8.18Z"/>
    <path class="a" d="M96.41,47.36,85.07,10.73h-.29q.61,11.18.61,14.91V47.36H76.48V.67H90.07l11.14,35.7h.19L113.22.67h13.59V47.36H117.5V25.26q0-1.56,0-3.61T118,10.79h-.29L105.55,47.36Z"/>
    <path class="b" d="M181.32,21.14H200V45.35a53,53,0,0,1-8.55,2.06,56.19,56.19,0,0,1-8.19.59Q172.6,48,167,41.79T161.36,24q0-11.31,6.52-17.63T186,0a35.23,35.23,0,0,1,14,2.87l-3.32,7.92A23.85,23.85,0,0,0,185.9,8.24a13.29,13.29,0,0,0-10.37,4.31q-3.9,4.31-3.9,11.59,0,7.6,3.14,11.61t9.13,4a32.54,32.54,0,0,0,6.34-.64V29.38h-8.92Z"/>
  </g>
  <ellipse class="b" cx="145.13" cy="23.49" rx="9" ry="8.93"/>
  <ellipse class="c" cx="141" cy="21.82" rx="2" ry="2.98"/>
</svg>
